<svg xmlns="http://www.w3.org/2000/svg" xmlns:xlink="http://www.w3.org/1999/xlink" width="500" zoomAndPan="magnify" viewBox="0 0 375 374.999991" height="500" preserveAspectRatio="xMidYMid meet" version="1.0"><defs><g/></defs><path stroke-linecap="butt" transform="matrix(0.693529, 0, 0, 0.693529, 23.827959, 143.389575)" fill="none" stroke-linejoin="miter" d="M 14.7741 69.67466 C 12.301464 68.598866 10.363909 67.241451 8.967066 65.602414 C 7.570224 63.96901 6.646506 62.425724 6.195911 60.97819 C 5.491858 58.826602 5.137015 56.979165 5.137015 55.441512 C 5.137015 53.898227 5.643933 52.129644 6.65777 50.141397 C 7.665975 48.147517 9.344439 46.176167 11.687529 44.216081 C 16.829937 39.9467 24.715337 36.279989 35.343731 33.232845 C 31.936111 31.785311 29.992923 29.492912 29.514167 26.344385 C 29.029778 22.745262 30.573063 19.551675 34.138391 16.757991 C 40.7227 11.587421 53.378768 8.08405 72.100962 6.253511 C 77.879834 5.707165 82.081626 5.436808 84.695073 5.436808 C 87.314152 5.436808 89.178486 5.853608 90.282442 6.687208 C 91.392031 7.520807 92.051025 8.765574 92.259425 10.421508 C 92.467825 12.077442 92.158041 13.46302 91.318809 14.589505 C 90.48521 15.710359 89.296767 16.611547 87.753482 17.287439 C 84.89784 18.537838 80.994567 19.163038 76.049294 19.163038 C 72.42201 19.163038 69.110142 18.616692 66.124955 17.529633 C 65.32515 17.208585 64.694318 16.870639 64.249356 16.515796 C 57.822754 18.504044 54.178573 20.740118 53.311179 23.212754 C 53.052087 23.854851 52.956336 24.446256 53.023925 24.992602 C 53.311179 26.952687 54.595373 28.400221 56.876506 29.329572 C 59.15764 30.258923 62.627216 30.85596 67.279603 31.109419 C 68.822888 31.238965 69.971904 31.655765 70.726649 32.365451 C 71.481395 33.069505 71.915092 33.807353 72.02774 34.578996 C 72.140389 35.350638 72.084064 35.953308 71.858767 36.387005 C 71.63347 36.820702 71.295524 37.181178 70.84493 37.468432 C 70.07892 37.986615 68.552532 38.420312 66.271398 38.769523 C 63.990264 39.124366 61.343023 39.614387 58.324041 40.239587 C 55.305059 40.864786 52.426888 41.535045 49.700792 42.239099 C 46.969064 42.948785 44.440103 43.669736 42.11391 44.407584 C 39.782085 45.145432 37.765675 45.855118 36.064682 46.525377 C 32.471192 48.034868 30.736404 49.251473 30.860317 50.163926 C 30.989863 51.082012 31.361604 51.876185 31.969906 52.552076 C 32.578208 53.222335 33.400543 53.819373 34.425645 54.331924 C 36.351936 55.233112 38.706291 55.801988 41.483078 56.044182 C 44.265498 56.280744 46.963432 56.404658 49.576879 56.404658 C 52.195958 56.404658 55.00654 56.184993 58.008625 55.751296 C 61.010709 55.317599 63.821291 54.765621 66.440371 54.089729 C 69.053818 53.413838 71.464497 52.704152 73.666777 51.949406 C 75.863424 51.194661 77.784083 50.479342 79.423119 49.803451 L 83.371452 48.164414 C 84.402186 47.71382 85.331537 47.488523 86.165137 47.488523 C 88.384314 47.488523 89.634713 48.6657 89.921967 51.008791 C 90.310604 54.185481 86.745277 57.767705 79.231617 61.749833 C 69.177731 67.111905 58.064949 70.615276 45.89327 72.254312 C 43.065791 72.637318 39.669436 72.82882 35.704206 72.82882 C 31.738976 72.82882 27.87513 72.575361 24.1183 72.057177 C 20.36147 71.544626 17.246737 70.750454 14.7741 69.67466 Z M 150.954966 36.989675 C 153.010803 36.989675 154.041537 37.840172 154.041537 39.541165 C 154.041537 41.630797 152.785506 44.12033 150.284707 47.009766 C 146.13924 51.825493 141.255924 56.517306 135.63476 61.073941 C 126.482063 68.396099 118.309408 72.057177 111.116797 72.057177 C 105.946227 72.057177 101.705008 69.809838 98.398772 65.31516 C 94.962991 60.628979 93.2451 54.331924 93.2451 46.429626 C 93.2451 36.060324 98.303021 24.592699 108.418863 12.038015 C 114.839832 4.039966 120.894693 -1.389695 126.583446 -4.245337 C 128.346397 -5.146525 129.703812 -5.59712 130.65006 -5.59712 C 131.596308 -5.59712 132.463702 -5.445044 133.252242 -5.140893 C 134.040782 -4.831109 134.772998 -4.408677 135.443257 -3.862332 C 137.020337 -2.544343 137.803245 -0.955998 137.803245 0.908336 C 137.803245 2.767037 137.290694 4.974949 136.265592 7.532072 C 135.234857 10.083562 133.742264 12.804025 131.782178 15.699094 C 127.642343 21.832809 122.038076 27.707432 114.969378 33.328596 C 113.138839 36.826335 112.226385 41.033759 112.226385 45.95087 C 112.226385 48.164414 112.930439 50.254045 114.344178 52.21413 C 115.791713 54.168583 117.380058 55.148626 119.114846 55.148626 C 121.491731 55.148626 126.037101 52.692887 132.745324 47.781409 L 141.323513 41.180202 C 144.821251 38.386518 148.031736 36.989675 150.954966 36.989675 Z M 200.142968 36.989675 C 202.193172 36.989675 203.223906 37.840172 203.223906 39.541165 C 203.223906 41.630797 201.973507 44.12033 199.467076 47.009766 C 195.321609 51.825493 190.443925 56.517306 184.822761 61.073941 C 175.670064 68.396099 167.491778 72.057177 160.299166 72.057177 C 155.128596 72.057177 150.89301 69.809838 147.581141 65.31516 C 144.14536 60.628979 142.427469 54.331924 142.427469 46.429626 C 142.427469 36.060324 147.48539 24.592699 157.601232 12.038015 C 164.027834 4.039966 170.077062 -1.389695 175.765816 -4.245337 C 177.528766 -5.146525 178.886181 -5.59712 179.832429 -5.59712 C 180.78431 -5.59712 181.651704 -5.445044 182.434611 -5.140893 C 183.223151 -4.831109 183.955367 -4.408677 184.625626 -3.862332 C 186.202706 -2.544343 186.991246 -0.955998 186.991246 0.908336 C 186.991246 2.767037 186.473063 4.974949 185.447961 7.532072 C 184.417226 10.083562 182.924633 12.804025 180.964547 15.699094 C 176.824712 21.832809 171.220445 27.707432 164.151747 33.328596 C 162.321208 36.826335 161.408754 41.033759 161.408754 45.95087 C 161.408754 48.164414 162.112808 50.254045 163.526548 52.21413 C 164.974082 54.168583 166.562427 55.148626 168.297215 55.148626 C 170.6741 55.148626 175.21947 52.692887 181.933325 47.781409 L 190.505882 41.180202 C 194.00362 38.386518 197.219737 36.989675 200.142968 36.989675 Z M 218.301919 48.355917 C 218.301919 53.723621 223.647094 56.404658 234.343076 56.404658 C 241.569482 56.404658 250.643325 53.67293 261.558973 48.215106 L 266.476083 45.612924 C 273.922154 41.822299 278.129578 41.005597 279.092724 43.157185 C 279.351815 43.731693 279.481361 44.401952 279.481361 45.156697 C 279.481361 45.911443 279.165945 46.677453 278.540746 47.465993 C 277.915546 48.254533 277.070682 49.121927 276.011785 50.068175 C 274.952888 51.014423 273.713754 52.011363 272.305647 53.053362 C 270.891907 54.100994 269.393681 55.137361 267.822233 56.162463 L 263.102258 59.102591 C 261.497016 60.065736 259.762228 61.011984 257.897894 61.941335 L 250.86299 65.410911 C 239.851592 70.547687 229.45976 73.121707 219.698761 73.121707 C 211.154366 73.121707 204.586954 71.431978 199.996525 68.063785 C 195.884852 65.072966 193.829015 61.220384 193.829015 56.500409 C 193.829015 49.978056 196.763511 43.410644 202.643766 36.798173 C 207.718585 31.109419 214.669002 25.719185 223.50065 20.610572 C 231.211446 16.144056 239.434792 12.482977 248.165057 9.627336 C 256.422197 6.895608 263.119155 5.53256 268.25593 5.53256 C 269.348622 5.53256 270.261075 5.887403 271.004556 6.591456 C 272.350706 7.841856 273.026598 9.08099 273.026598 10.303227 C 273.026598 15.051365 271.049615 18.892681 267.101283 21.815912 C 263.727458 24.288548 259.796022 25.52205 255.295712 25.52205 C 250.801033 25.52205 247.427208 25.077088 245.179869 24.175899 C 236.798815 27.420178 229.989209 31.768414 224.756682 37.23187 C 222.5713 39.513003 220.94916 41.647694 219.890264 43.635941 C 218.831367 45.629821 218.301919 47.201269 218.301919 48.355917 Z M 322.400469 41.326645 C 322.400469 43.061434 323.876166 43.928828 326.833191 43.928828 C 329.018573 43.928828 331.874215 42.864298 335.405748 40.746505 L 339.263962 38.628712 C 340.452404 37.95282 341.483139 37.614875 342.36743 37.614875 C 343.251721 37.614875 343.950142 37.890864 344.462693 38.437209 C 344.980877 38.977923 345.234336 39.732668 345.234336 40.701446 C 345.234336 41.664591 344.913288 42.779812 344.271191 44.047109 C 343.629094 45.314405 342.744803 46.649291 341.623949 48.046133 C 340.497464 49.442975 339.179475 50.822921 337.669984 52.185968 C 336.160493 53.554649 334.538354 54.782518 332.803566 55.875209 C 328.950984 58.280256 325.368759 59.485596 322.062524 59.485596 C 318.564785 59.485596 315.771101 58.894191 313.68147 57.705749 C 313.039373 57.317111 312.414173 56.917209 311.800238 56.500409 C 308.364457 60.420579 303.38539 64.014069 296.868669 67.292143 C 289.929517 70.761719 283.880288 72.490874 278.709719 72.490874 C 273.280057 72.490874 268.993779 70.356184 265.845251 66.086803 C 263.305025 62.617227 262.037729 59.102591 262.037729 55.537264 C 262.037729 50.394856 264.786354 45.500275 270.277972 40.842257 C 274.322056 37.440269 278.230962 34.854985 282.004689 33.086402 C 285.778417 31.323452 289.191669 29.954771 292.244445 28.991626 C 298.699209 26.969584 304.511875 25.955747 309.682445 25.955747 C 311.997373 25.955747 314.058842 26.400709 315.872484 27.285 C 317.686126 28.163659 319.026645 29.059215 319.894039 29.954771 C 321.949875 31.976813 322.98061 34.562098 322.98061 37.710626 C 322.98061 38.645609 322.884858 39.36656 322.687723 39.879111 C 322.496221 40.391662 322.400469 40.876051 322.400469 41.326645 Z M 282.995997 50.428651 L 282.945305 50.575094 L 282.945305 50.620153 C 282.945305 52.005731 283.249456 52.901287 283.863391 53.318087 C 285.339087 54.219275 286.89927 54.450205 288.532675 54.016508 C 290.171711 53.582811 291.731894 53.04773 293.20759 52.405633 C 296.868669 50.828553 300.174905 48.840306 303.13193 46.429626 C 302.619379 45.404524 302.360287 44.345627 302.360287 43.252936 C 302.360287 40.938008 303.374125 38.628712 305.396167 36.313784 C 302.827779 36.313784 299.358203 37.519123 294.987438 39.929803 C 290.171711 42.593942 286.561324 45.336935 284.150645 48.164414 C 283.379002 49.127559 282.995997 49.882305 282.995997 50.428651 Z M 418.98536 35.40133 C 420.432894 35.40133 421.153845 36.139178 421.153845 37.614875 C 421.153845 39.957965 419.61056 43.269833 416.529621 47.539214 C 414.378033 50.524402 409.945312 54.669869 403.231457 59.969985 C 395.23904 66.233246 388.812439 69.364876 383.962917 69.364876 C 380.301839 69.364876 377.541948 67.821591 375.677614 64.73502 C 374.556761 62.876318 373.638675 60.14459 372.934622 56.545468 L 368.642711 59.632039 C 356.859669 67.787796 348.056183 71.865675 342.243516 71.865675 C 337.393995 71.865675 333.507619 70.102725 330.590021 66.565559 C 328.016001 63.388869 326.731807 59.581347 326.731807 55.148626 C 326.731807 50.270942 328.404639 46.412729 331.744669 43.590882 C 338.554276 37.873966 347.014184 33.165256 357.130026 29.476015 C 361.241699 27.966524 363.843881 27.211779 364.936572 27.211779 C 366.029264 27.211779 367.031836 27.392016 367.94429 27.763757 C 368.862375 28.135497 369.769196 28.608621 370.670385 29.183129 C 372.788178 30.630663 373.847075 32.027505 373.847075 33.373656 C 373.847075 34.466347 373.171184 35.350638 371.825033 36.02653 C 371.408233 36.251827 370.698547 36.555978 369.70724 36.938983 C 368.7103 37.327621 367.488063 37.857069 366.046161 38.532961 C 362.159785 40.3635 358.36916 42.577045 354.674287 45.179227 C 352.03831 47.426566 350.725954 49.217678 350.725954 50.552564 C 350.725954 51.881817 351.655305 52.552076 353.519639 52.552076 C 355.057292 52.552076 358.143863 51.183396 362.768087 48.4573 C 362.768087 48.4573 364.131135 47.618068 366.862863 45.95087 C 369.786094 44.12033 372.129184 42.447499 373.897767 40.938008 C 373.897767 40.938008 374.635615 38.532961 376.111311 33.711602 C 378.843039 25.10525 381.878919 17.991492 385.218949 12.370328 C 391.127367 1.037882 397.069579 -4.633974 403.039954 -4.633974 C 405.225336 -4.633974 406.960124 -4.234072 408.244318 -3.428635 C 410.553614 -1.9811 411.713894 -0.387123 411.713894 1.364562 C 411.713894 3.116248 411.392846 4.969317 410.750749 6.929402 C 410.108652 8.889487 409.263788 10.832675 408.221789 12.758966 C 407.174157 14.685257 405.980082 16.59465 404.628299 18.492779 L 396.393688 29.380264 C 395.013743 31.143214 393.791506 32.861105 392.732609 34.533936 C 390.868275 38.544226 389.938924 41.98564 389.938924 44.841281 C 389.938924 48.952954 391.431518 51.008791 394.416705 51.008791 C 396.117699 51.008791 399.187373 49.223311 403.620094 45.657983 L 409.303215 40.842257 C 411.967354 38.465372 414.60333 36.798173 417.205513 35.835027 C 417.943361 35.542141 418.534766 35.40133 418.98536 35.40133 Z M 477.179616 35.592833 C 478.717269 35.592833 479.488911 36.460227 479.488911 38.195015 C 479.488911 39.349663 479.094641 40.80283 478.311734 42.554515 C 477.523194 44.3062 476.391075 45.939605 474.915379 47.465993 C 473.43405 48.992381 471.744322 50.575094 469.829296 52.21413 C 467.919902 53.847535 465.689461 55.571058 463.13797 57.367803 C 460.580848 59.164548 457.764633 60.950028 454.678062 62.712978 C 451.597123 64.481561 448.31905 66.069906 444.855106 67.483645 C 437.178106 70.632173 429.743299 72.203621 422.550688 72.203621 C 417.059069 72.203621 412.254608 70.772984 408.142935 67.917342 C 403.839759 64.932155 401.688171 61.299238 401.688171 57.029857 C 401.688171 50.316002 405.30419 43.940092 412.530597 37.902129 C 418.760063 32.703397 426.099118 28.670578 434.542129 25.814936 C 439.684536 24.080148 444.032771 23.212754 447.598099 23.212754 C 450.487535 23.212754 452.932009 23.916808 454.920257 25.330547 C 457.043682 26.873833 458.102579 28.946567 458.102579 31.543116 C 458.102579 35.626627 454.875197 40.138203 448.420434 45.083475 C 447.389699 45.88328 446.460348 46.559172 445.626749 47.105517 L 443.891961 48.260165 C 440.675844 50.507505 435.79816 53.030833 429.247646 55.824517 C 431.269688 56.883414 433.156551 57.412862 434.902604 57.412862 C 436.65429 57.412862 438.23137 57.204462 439.628212 56.787663 C 441.025054 56.370863 442.607767 55.779458 444.370717 55.007815 C 446.1393 54.236172 448.026164 53.312454 450.031308 52.23666 C 452.036453 51.160866 454.06976 49.978056 456.125596 48.693862 C 460.716026 45.838221 464.698153 42.91499 468.071978 39.929803 C 469.840561 38.290766 472.0879 36.989675 474.819628 36.02653 C 475.715184 35.739276 476.503724 35.592833 477.179616 35.592833 Z M 424.043281 49.127559 L 426.690523 47.781409 C 427.557917 47.330815 428.32956 46.914015 429.005451 46.525377 C 435.494009 42.802342 439.18325 40.504311 440.084439 39.636917 C 440.985627 38.769523 441.430589 38.166853 441.430589 37.834539 C 441.430589 37.496594 441.334838 37.102324 441.143335 36.651729 C 440.951833 36.201135 440.692741 35.801233 440.371693 35.44639 C 439.60005 34.550833 438.783348 34.100239 437.915954 34.100239 C 437.04856 34.100239 436.091047 34.257947 435.049047 34.578996 C 434.007048 34.900044 432.953784 35.345006 431.894887 35.902616 C 430.835991 36.465859 429.816521 37.141751 428.836478 37.930291 C 427.856436 38.713198 426.994674 39.558063 426.256826 40.459251 C 424.555832 42.481293 423.705336 44.232979 423.705336 45.708675 C 423.705336 47.184371 423.817984 48.327755 424.043281 49.127559 Z M 424.043281 49.127559 " stroke="#282929" stroke-width="3.576661" stroke-opacity="1" stroke-miterlimit="4"/><g fill="#f5acc8" fill-opacity="1"><g transform="translate(26.656255, 192.630099)"><g><path d="M 7.40625 -0.90625 C 5.695312 -1.65625 4.359375 -2.597656 3.390625 -3.734375 C 2.421875 -4.878906 1.78125 -5.953125 1.46875 -6.953125 C 0.976562 -8.441406 0.734375 -9.71875 0.734375 -10.78125 C 0.734375 -11.851562 1.082031 -13.078125 1.78125 -14.453125 C 2.488281 -15.835938 3.65625 -17.210938 5.28125 -18.578125 C 8.84375 -21.535156 14.3125 -24.070312 21.6875 -26.1875 C 19.320312 -27.195312 17.972656 -28.789062 17.640625 -30.96875 C 17.304688 -33.46875 18.375 -35.6875 20.84375 -37.625 C 25.414062 -41.207031 34.191406 -43.632812 47.171875 -44.90625 C 51.179688 -45.28125 54.09375 -45.46875 55.90625 -45.46875 C 57.726562 -45.46875 59.019531 -45.175781 59.78125 -44.59375 C 60.550781 -44.019531 61.007812 -43.160156 61.15625 -42.015625 C 61.300781 -40.867188 61.082031 -39.90625 60.5 -39.125 C 59.925781 -38.34375 59.101562 -37.71875 58.03125 -37.25 C 56.050781 -36.382812 53.34375 -35.953125 49.90625 -35.953125 C 47.394531 -35.953125 45.101562 -36.328125 43.03125 -37.078125 C 42.476562 -37.304688 42.046875 -37.539062 41.734375 -37.78125 C 37.273438 -36.40625 34.742188 -34.859375 34.140625 -33.140625 C 33.960938 -32.691406 33.894531 -32.28125 33.9375 -31.90625 C 34.144531 -30.550781 35.035156 -29.550781 36.609375 -28.90625 C 38.191406 -28.257812 40.597656 -27.84375 43.828125 -27.65625 C 44.898438 -27.570312 45.695312 -27.285156 46.21875 -26.796875 C 46.738281 -26.304688 47.035156 -25.789062 47.109375 -25.25 C 47.191406 -24.71875 47.15625 -24.300781 47 -24 C 46.84375 -23.695312 46.613281 -23.445312 46.3125 -23.25 C 45.769531 -22.894531 44.707031 -22.59375 43.125 -22.34375 C 41.550781 -22.101562 39.71875 -21.765625 37.625 -21.328125 C 35.53125 -20.898438 33.535156 -20.4375 31.640625 -19.9375 C 29.742188 -19.445312 27.988281 -18.945312 26.375 -18.4375 C 24.757812 -17.925781 23.363281 -17.4375 22.1875 -16.96875 C 19.6875 -15.925781 18.476562 -15.085938 18.5625 -14.453125 C 18.65625 -13.816406 18.914062 -13.265625 19.34375 -12.796875 C 19.769531 -12.328125 20.335938 -11.914062 21.046875 -11.5625 C 22.378906 -10.9375 24.007812 -10.539062 25.9375 -10.375 C 27.863281 -10.207031 29.734375 -10.125 31.546875 -10.125 C 33.367188 -10.125 35.320312 -10.273438 37.40625 -10.578125 C 39.488281 -10.878906 41.4375 -11.257812 43.25 -11.71875 C 45.0625 -12.1875 46.726562 -12.679688 48.25 -13.203125 C 49.78125 -13.734375 51.113281 -14.234375 52.25 -14.703125 L 54.984375 -15.828125 C 55.703125 -16.140625 56.347656 -16.296875 56.921875 -16.296875 C 58.460938 -16.296875 59.332031 -15.484375 59.53125 -13.859375 C 59.800781 -11.660156 57.332031 -9.179688 52.125 -6.421875 C 45.144531 -2.691406 37.4375 -0.257812 29 0.875 C 27.039062 1.132812 24.6875 1.265625 21.9375 1.265625 C 19.1875 1.265625 16.503906 1.085938 13.890625 0.734375 C 11.285156 0.378906 9.125 -0.164062 7.40625 -0.90625 Z M 7.40625 -0.90625 "/></g></g></g><g fill="#f5acc8" fill-opacity="1"><g transform="translate(89.030211, 192.630099)"><g><path d="M 39.484375 -23.59375 C 40.910156 -23.59375 41.625 -23 41.625 -21.8125 C 41.625 -20.363281 40.753906 -18.640625 39.015625 -16.640625 C 36.148438 -13.296875 32.765625 -10.039062 28.859375 -6.875 C 22.515625 -1.800781 16.847656 0.734375 11.859375 0.734375 C 8.273438 0.734375 5.335938 -0.820312 3.046875 -3.9375 C 0.660156 -7.1875 -0.53125 -11.550781 -0.53125 -17.03125 C -0.53125 -24.226562 2.972656 -32.179688 9.984375 -40.890625 C 14.441406 -46.441406 18.640625 -50.207031 22.578125 -52.1875 C 23.804688 -52.8125 24.75 -53.125 25.40625 -53.125 C 26.0625 -53.125 26.660156 -53.015625 27.203125 -52.796875 C 27.753906 -52.585938 28.265625 -52.296875 28.734375 -51.921875 C 29.828125 -51.003906 30.375 -49.898438 30.375 -48.609375 C 30.375 -47.316406 30.015625 -45.785156 29.296875 -44.015625 C 28.585938 -42.242188 27.550781 -40.359375 26.1875 -38.359375 C 23.320312 -34.097656 19.4375 -30.019531 14.53125 -26.125 C 13.257812 -23.695312 12.625 -20.78125 12.625 -17.375 C 12.625 -15.832031 13.113281 -14.382812 14.09375 -13.03125 C 15.101562 -11.664062 16.207031 -10.984375 17.40625 -10.984375 C 19.050781 -10.984375 22.203125 -12.691406 26.859375 -16.109375 L 32.8125 -20.6875 C 35.238281 -22.625 37.460938 -23.59375 39.484375 -23.59375 Z M 39.484375 -23.59375 "/></g></g></g><g fill="#f5acc8" fill-opacity="1"><g transform="translate(123.140446, 192.630099)"><g><path d="M 39.484375 -23.59375 C 40.910156 -23.59375 41.625 -23 41.625 -21.8125 C 41.625 -20.363281 40.753906 -18.640625 39.015625 -16.640625 C 36.148438 -13.296875 32.765625 -10.039062 28.859375 -6.875 C 22.515625 -1.800781 16.847656 0.734375 11.859375 0.734375 C 8.273438 0.734375 5.335938 -0.820312 3.046875 -3.9375 C 0.660156 -7.1875 -0.53125 -11.550781 -0.53125 -17.03125 C -0.53125 -24.226562 2.972656 -32.179688 9.984375 -40.890625 C 14.441406 -46.441406 18.640625 -50.207031 22.578125 -52.1875 C 23.804688 -52.8125 24.75 -53.125 25.40625 -53.125 C 26.0625 -53.125 26.660156 -53.015625 27.203125 -52.796875 C 27.753906 -52.585938 28.265625 -52.296875 28.734375 -51.921875 C 29.828125 -51.003906 30.375 -49.898438 30.375 -48.609375 C 30.375 -47.316406 30.015625 -45.785156 29.296875 -44.015625 C 28.585938 -42.242188 27.550781 -40.359375 26.1875 -38.359375 C 23.320312 -34.097656 19.4375 -30.019531 14.53125 -26.125 C 13.257812 -23.695312 12.625 -20.78125 12.625 -17.375 C 12.625 -15.832031 13.113281 -14.382812 14.09375 -13.03125 C 15.101562 -11.664062 16.207031 -10.984375 17.40625 -10.984375 C 19.050781 -10.984375 22.203125 -12.691406 26.859375 -16.109375 L 32.8125 -20.6875 C 35.238281 -22.625 37.460938 -23.59375 39.484375 -23.59375 Z M 39.484375 -23.59375 "/></g></g></g><g fill="#f5acc8" fill-opacity="1"><g transform="translate(157.25068, 192.630099)"><g><path d="M 17.96875 -15.703125 C 17.96875 -11.984375 21.675781 -10.125 29.09375 -10.125 C 34.101562 -10.125 40.394531 -12.015625 47.96875 -15.796875 L 51.390625 -17.609375 C 56.554688 -20.234375 59.472656 -20.800781 60.140625 -19.3125 C 60.316406 -18.90625 60.40625 -18.441406 60.40625 -17.921875 C 60.40625 -17.398438 60.1875 -16.863281 59.75 -16.3125 C 59.3125 -15.769531 58.722656 -15.171875 57.984375 -14.515625 C 57.253906 -13.859375 56.398438 -13.164062 55.421875 -12.4375 C 54.441406 -11.71875 53.40625 -11.003906 52.3125 -10.296875 L 49.046875 -8.25 C 47.929688 -7.582031 46.726562 -6.925781 45.4375 -6.28125 L 40.5625 -3.875 C 32.914062 -0.3125 25.707031 1.46875 18.9375 1.46875 C 13.019531 1.46875 8.46875 0.300781 5.28125 -2.03125 C 2.425781 -4.101562 1 -6.78125 1 -10.0625 C 1 -14.582031 3.035156 -19.132812 7.109375 -23.71875 C 10.628906 -27.664062 15.453125 -31.410156 21.578125 -34.953125 C 26.921875 -38.046875 32.625 -40.582031 38.6875 -42.5625 C 44.414062 -44.457031 49.0625 -45.40625 52.625 -45.40625 C 53.375 -45.40625 54.007812 -45.160156 54.53125 -44.671875 C 55.457031 -43.796875 55.921875 -42.9375 55.921875 -42.09375 C 55.921875 -38.800781 54.550781 -36.140625 51.8125 -34.109375 C 49.476562 -32.390625 46.75 -31.53125 43.625 -31.53125 C 40.507812 -31.53125 38.171875 -31.84375 36.609375 -32.46875 C 30.796875 -30.21875 26.078125 -27.203125 22.453125 -23.421875 C 20.929688 -21.835938 19.800781 -20.351562 19.0625 -18.96875 C 18.332031 -17.59375 17.96875 -16.503906 17.96875 -15.703125 Z M 17.96875 -15.703125 "/></g></g></g><g fill="#f5acc8" fill-opacity="1"><g transform="translate(212.007463, 192.630099)"><g><path d="M 35.40625 -20.578125 C 35.40625 -19.378906 36.429688 -18.78125 38.484375 -18.78125 C 40.003906 -18.78125 41.988281 -19.515625 44.4375 -20.984375 L 47.109375 -22.453125 C 47.929688 -22.921875 48.648438 -23.15625 49.265625 -23.15625 C 49.878906 -23.15625 50.363281 -22.960938 50.71875 -22.578125 C 51.070312 -22.203125 51.25 -21.679688 51.25 -21.015625 C 51.25 -20.347656 51.023438 -19.570312 50.578125 -18.6875 C 50.128906 -17.8125 49.515625 -16.890625 48.734375 -15.921875 C 47.960938 -14.953125 47.050781 -13.992188 46 -13.046875 C 44.957031 -12.097656 43.832031 -11.242188 42.625 -10.484375 C 39.957031 -8.816406 37.476562 -7.984375 35.1875 -7.984375 C 32.75 -7.984375 30.804688 -8.394531 29.359375 -9.21875 C 28.921875 -9.488281 28.488281 -9.769531 28.0625 -10.0625 C 25.675781 -7.34375 22.222656 -4.847656 17.703125 -2.578125 C 12.890625 -0.171875 8.691406 1.03125 5.109375 1.03125 C 1.347656 1.03125 -1.625 -0.445312 -3.8125 -3.40625 C -5.570312 -5.8125 -6.453125 -8.25 -6.453125 -10.71875 C -6.453125 -14.28125 -4.546875 -17.679688 -0.734375 -20.921875 C 2.066406 -23.273438 4.773438 -25.0625 7.390625 -26.28125 C 10.015625 -27.507812 12.382812 -28.457031 14.5 -29.125 C 18.976562 -30.53125 23.007812 -31.234375 26.59375 -31.234375 C 28.195312 -31.234375 29.628906 -30.925781 30.890625 -30.3125 C 32.148438 -29.707031 33.078125 -29.09375 33.671875 -28.46875 C 35.097656 -27.0625 35.8125 -25.265625 35.8125 -23.078125 C 35.8125 -22.429688 35.742188 -21.929688 35.609375 -21.578125 C 35.472656 -21.222656 35.40625 -20.890625 35.40625 -20.578125 Z M 8.078125 -14.265625 L 8.046875 -14.171875 L 8.046875 -14.125 C 8.046875 -13.175781 8.257812 -12.554688 8.6875 -12.265625 C 9.707031 -11.640625 10.785156 -11.476562 11.921875 -11.78125 C 13.054688 -12.082031 14.140625 -12.453125 15.171875 -12.890625 C 17.703125 -13.984375 19.992188 -15.363281 22.046875 -17.03125 C 21.691406 -17.75 21.515625 -18.488281 21.515625 -19.25 C 21.515625 -20.851562 22.21875 -22.453125 23.625 -24.046875 C 21.84375 -24.046875 19.4375 -23.210938 16.40625 -21.546875 C 13.0625 -19.703125 10.554688 -17.796875 8.890625 -15.828125 C 8.347656 -15.160156 8.078125 -14.640625 8.078125 -14.265625 Z M 8.078125 -14.265625 "/></g></g></g><g fill="#f5acc8" fill-opacity="1"><g transform="translate(257.443231, 192.630099)"><g><path d="M 56.96875 -24.6875 C 57.96875 -24.6875 58.46875 -24.175781 58.46875 -23.15625 C 58.46875 -21.53125 57.398438 -19.234375 55.265625 -16.265625 C 53.765625 -14.191406 50.6875 -11.320312 46.03125 -7.65625 C 40.488281 -3.3125 36.035156 -1.140625 32.671875 -1.140625 C 30.128906 -1.140625 28.210938 -2.207031 26.921875 -4.34375 C 26.148438 -5.632812 25.515625 -7.523438 25.015625 -10.015625 L 22.046875 -7.890625 C 13.867188 -2.234375 7.765625 0.59375 3.734375 0.59375 C 0.378906 0.59375 -2.3125 -0.628906 -4.34375 -3.078125 C -6.125 -5.273438 -7.015625 -7.910156 -7.015625 -10.984375 C -7.015625 -14.367188 -5.859375 -17.046875 -3.546875 -19.015625 C 1.179688 -22.972656 7.050781 -26.234375 14.0625 -28.796875 C 16.914062 -29.847656 18.71875 -30.375 19.46875 -30.375 C 20.226562 -30.375 20.925781 -30.242188 21.5625 -29.984375 C 22.195312 -29.722656 22.828125 -29.394531 23.453125 -29 C 24.921875 -28 25.65625 -27.03125 25.65625 -26.09375 C 25.65625 -25.332031 25.1875 -24.71875 24.25 -24.25 C 23.96875 -24.09375 23.476562 -23.878906 22.78125 -23.609375 C 22.09375 -23.347656 21.25 -22.984375 20.25 -22.515625 C 17.550781 -21.242188 14.921875 -19.707031 12.359375 -17.90625 C 10.535156 -16.34375 9.625 -15.097656 9.625 -14.171875 C 9.625 -13.253906 10.269531 -12.796875 11.5625 -12.796875 C 12.625 -12.796875 14.757812 -13.742188 17.96875 -15.640625 C 17.96875 -15.640625 18.914062 -16.21875 20.8125 -17.375 C 22.84375 -18.644531 24.46875 -19.800781 25.6875 -20.84375 C 25.6875 -20.84375 26.203125 -22.515625 27.234375 -25.859375 C 29.117188 -31.828125 31.222656 -36.757812 33.546875 -40.65625 C 37.640625 -48.519531 41.757812 -52.453125 45.90625 -52.453125 C 47.414062 -52.453125 48.617188 -52.171875 49.515625 -51.609375 C 51.117188 -50.609375 51.921875 -49.5 51.921875 -48.28125 C 51.921875 -47.070312 51.695312 -45.785156 51.25 -44.421875 C 50.800781 -43.066406 50.210938 -41.722656 49.484375 -40.390625 C 48.765625 -39.054688 47.9375 -37.734375 47 -36.421875 L 41.296875 -28.859375 C 40.335938 -27.640625 39.488281 -26.453125 38.75 -25.296875 C 37.457031 -22.503906 36.8125 -20.117188 36.8125 -18.140625 C 36.8125 -15.285156 37.847656 -13.859375 39.921875 -13.859375 C 41.097656 -13.859375 43.226562 -15.097656 46.3125 -17.578125 L 50.25 -20.921875 C 52.09375 -22.566406 53.914062 -23.722656 55.71875 -24.390625 C 56.238281 -24.585938 56.65625 -24.6875 56.96875 -24.6875 Z M 56.96875 -24.6875 "/></g></g></g><g fill="#f5acc8" fill-opacity="1"><g transform="translate(308.558471, 192.630099)"><g><path d="M 46.203125 -24.5625 C 47.273438 -24.5625 47.8125 -23.957031 47.8125 -22.75 C 47.8125 -21.945312 47.535156 -20.9375 46.984375 -19.71875 C 46.441406 -18.507812 45.65625 -17.375 44.625 -16.3125 C 43.601562 -15.257812 42.429688 -14.164062 41.109375 -13.03125 C 39.785156 -11.894531 38.238281 -10.703125 36.46875 -9.453125 C 34.695312 -8.203125 32.738281 -6.960938 30.59375 -5.734375 C 28.457031 -4.515625 26.1875 -3.414062 23.78125 -2.4375 C 18.457031 -0.257812 13.300781 0.828125 8.3125 0.828125 C 4.507812 0.828125 1.179688 -0.160156 -1.671875 -2.140625 C -4.648438 -4.210938 -6.140625 -6.726562 -6.140625 -9.6875 C -6.140625 -14.34375 -3.632812 -18.765625 1.375 -22.953125 C 5.6875 -26.554688 10.773438 -29.351562 16.640625 -31.34375 C 20.203125 -32.539062 23.21875 -33.140625 25.6875 -33.140625 C 27.695312 -33.140625 29.390625 -32.648438 30.765625 -31.671875 C 32.234375 -30.597656 32.96875 -29.160156 32.96875 -27.359375 C 32.96875 -24.535156 30.734375 -21.40625 26.265625 -17.96875 C 25.546875 -17.414062 24.898438 -16.953125 24.328125 -16.578125 L 23.125 -15.765625 C 20.894531 -14.210938 17.507812 -12.46875 12.96875 -10.53125 C 14.363281 -9.789062 15.664062 -9.421875 16.875 -9.421875 C 18.09375 -9.421875 19.1875 -9.566406 20.15625 -9.859375 C 21.125 -10.148438 22.222656 -10.5625 23.453125 -11.09375 C 24.679688 -11.625 25.988281 -12.257812 27.375 -13 C 28.769531 -13.75 30.179688 -14.570312 31.609375 -15.46875 C 34.785156 -17.445312 37.546875 -19.472656 39.890625 -21.546875 C 41.117188 -22.679688 42.675781 -23.582031 44.5625 -24.25 C 45.1875 -24.457031 45.734375 -24.5625 46.203125 -24.5625 Z M 9.359375 -15.171875 L 11.1875 -16.109375 C 11.789062 -16.421875 12.328125 -16.707031 12.796875 -16.96875 C 17.296875 -19.550781 19.859375 -21.144531 20.484375 -21.75 C 21.109375 -22.351562 21.421875 -22.769531 21.421875 -23 C 21.421875 -23.238281 21.351562 -23.507812 21.21875 -23.8125 C 21.082031 -24.125 20.90625 -24.40625 20.6875 -24.65625 C 20.144531 -25.28125 19.570312 -25.59375 18.96875 -25.59375 C 18.375 -25.59375 17.710938 -25.476562 16.984375 -25.25 C 16.265625 -25.03125 15.535156 -24.722656 14.796875 -24.328125 C 14.066406 -23.941406 13.359375 -23.472656 12.671875 -22.921875 C 11.992188 -22.378906 11.398438 -21.800781 10.890625 -21.1875 C 9.710938 -19.78125 9.125 -18.5625 9.125 -17.53125 C 9.125 -16.507812 9.203125 -15.722656 9.359375 -15.171875 Z M 9.359375 -15.171875 "/></g></g></g><path stroke-linecap="butt" transform="matrix(0.746124, 0, 0, 0.746124, 12.93595, 144.271764)" fill="none" stroke-linejoin="miter" d="M 12.739789 69.674853 C 10.268683 68.601598 8.331588 67.240396 6.938973 65.606953 C 5.541123 63.968275 4.614459 62.423834 4.164215 60.978865 C 3.457437 58.827119 3.106666 56.979025 3.106666 55.43982 C 3.106666 53.900614 3.614499 52.131051 4.62493 50.141602 C 5.63536 48.152152 7.315922 46.173174 9.656142 44.215137 C 14.797298 39.943056 22.6818 36.283516 33.309648 33.231282 C 29.906643 31.786314 27.964312 29.487976 27.482656 26.341505 C 27.000999 22.74479 28.540205 19.5512 32.105508 16.7555 C 38.691632 11.588168 51.345577 8.08569 70.067343 6.253302 C 75.847216 5.708821 80.046002 5.436581 82.663698 5.436581 C 85.281395 5.436581 87.145195 5.855412 88.255098 6.68784 C 89.359766 7.525503 90.019425 8.766291 90.228841 10.420675 C 90.438257 12.075059 90.124133 13.462438 89.291706 14.588048 C 88.454043 15.713657 87.265609 16.614145 85.726403 17.284275 C 82.867879 18.540769 78.962275 19.163781 74.020064 19.163781 C 70.391937 19.163781 67.083169 18.6193 64.093759 17.525103 C 63.292744 17.205744 62.664497 16.870679 62.214253 16.514672 C 55.790426 18.504122 52.146592 20.739635 51.282752 23.21074 C 51.026218 23.854693 50.926746 24.446293 50.98957 24.996009 C 51.282752 26.954046 52.565424 28.399015 54.84282 29.330915 C 57.125451 30.262814 60.596517 30.854414 65.250781 31.110948 C 66.789986 31.241833 67.941773 31.655429 68.69567 32.362207 C 69.449566 33.068985 69.884104 33.812411 69.994047 34.582014 C 70.109226 35.351617 70.051636 35.953687 69.826514 36.388224 C 69.601393 36.822762 69.266327 37.184004 68.816084 37.471951 C 68.046481 37.985019 66.517746 38.419557 64.24035 38.770328 C 61.957719 39.126335 59.30861 39.613226 56.293023 40.241474 C 53.272202 40.869721 50.397971 41.534616 47.665096 42.241394 C 44.937456 42.948172 42.408761 43.670656 40.079011 44.408846 C 37.749261 45.147037 35.73887 45.853815 34.032132 46.529181 C 30.435417 48.036974 28.702502 49.251585 28.833387 50.162543 C 28.959036 51.078737 29.330749 51.874517 29.938055 52.549883 C 30.550596 53.225248 31.367317 53.816848 32.39869 54.329916 C 34.325314 55.230404 36.676006 55.801062 39.455999 56.04189 C 42.230758 56.282718 44.932221 56.403132 47.544682 56.403132 C 50.162378 56.403132 52.973784 56.188481 55.9789 55.753943 C 58.97878 55.319406 61.790186 54.764454 64.407883 54.089088 C 67.025579 53.418958 69.43386 52.701709 71.632725 51.947812 C 73.83159 51.193916 75.752979 50.476667 77.391657 49.801301 L 81.339144 48.167859 C 82.370516 47.717615 83.302416 47.492493 84.134844 47.492493 C 86.349415 47.492493 87.605909 48.665221 87.893856 51.005442 C 88.27604 54.188561 84.710737 57.76957 77.197948 61.748468 C 67.145993 67.114746 56.031254 70.617224 43.8642 72.250667 C 41.037088 72.638086 37.639318 72.831795 33.67089 72.831795 C 29.707698 72.831795 25.843978 72.575261 22.084965 72.062192 C 18.331189 71.543889 15.21613 70.753344 12.739789 69.674853 Z M 148.928068 36.990295 C 150.980342 36.990295 152.006479 37.838428 152.006479 39.539931 C 152.006479 41.628853 150.75522 44.1209 148.252702 47.010837 C 144.106271 51.827398 139.226885 56.518311 133.604072 61.078338 C 124.452605 68.397417 116.280157 72.062192 109.086727 72.062192 C 103.914159 72.062192 99.67349 69.810973 96.369957 65.313771 C 92.930304 60.628094 91.213095 54.329916 91.213095 46.429708 C 91.213095 36.058395 96.270485 24.592884 106.390499 12.033176 C 112.809091 4.038731 118.866441 -1.390372 124.552078 -4.248896 C 126.316405 -5.149384 127.672372 -5.594392 128.619978 -5.594392 C 129.567584 -5.594392 130.43666 -5.442566 131.221969 -5.138913 C 132.007278 -4.83526 132.740233 -4.405958 133.415598 -3.861477 C 134.986216 -2.547394 135.771525 -0.955834 135.771525 0.907966 C 135.771525 2.771766 135.258457 4.975866 134.23232 7.530738 C 133.206183 10.08561 131.70886 12.808014 129.750823 15.697951 C 125.609627 21.828596 120.002521 27.707943 112.939976 33.325519 C 111.107589 36.827997 110.191395 41.037253 110.191395 45.948052 C 110.191395 48.167859 110.898173 50.251545 112.311729 52.214817 C 113.756697 54.172854 115.348257 55.151873 117.081172 55.151873 C 119.45804 55.151873 124.002362 52.696474 130.714135 47.78044 L 139.289709 41.178609 C 142.792187 38.388144 146.001483 36.990295 148.928068 36.990295 Z M 198.10935 36.990295 C 200.166859 36.990295 201.192996 37.838428 201.192996 39.539931 C 201.192996 41.628853 199.941738 44.1209 197.433984 47.010837 C 193.292788 51.827398 188.408167 56.518311 182.79059 61.078338 C 173.639123 68.397417 165.461439 72.062192 158.268009 72.062192 C 153.100676 72.062192 148.860008 69.810973 145.551239 65.313771 C 142.116821 60.628094 140.394377 54.329916 140.394377 46.429708 C 140.394377 36.058395 145.457002 24.592884 155.571782 12.033176 C 161.995609 4.038731 168.047723 -1.390372 173.73336 -4.248896 C 175.497687 -5.149384 176.85889 -5.594392 177.80126 -5.594392 C 178.748867 -5.594392 179.617942 -5.442566 180.403251 -5.138913 C 181.193795 -4.83526 181.921515 -4.405958 182.59688 -3.861477 C 184.172734 -2.547394 184.958043 -0.955834 184.958043 0.907966 C 184.958043 2.771766 184.444974 4.975866 183.413602 7.530738 C 182.387465 10.08561 180.895378 12.808014 178.937341 15.697951 C 174.790909 21.828596 169.189039 27.707943 162.121258 33.325519 C 160.294106 36.827997 159.377912 41.037253 159.377912 45.948052 C 159.377912 48.167859 160.08469 50.251545 161.498246 52.214817 C 162.943215 54.172854 164.529539 55.151873 166.26769 55.151873 C 168.644558 55.151873 173.188879 52.696474 179.900653 47.78044 L 188.476227 41.178609 C 191.973469 38.388144 195.188001 36.990295 198.10935 36.990295 Z M 216.270928 48.356333 C 216.270928 53.722611 221.616265 56.403132 232.312173 56.403132 C 239.537015 56.403132 248.609951 53.675492 259.530981 48.214977 L 264.44178 45.612987 C 271.891744 41.822562 276.101 41.005841 277.064312 43.157588 C 277.320847 43.733481 277.451731 44.398376 277.451731 45.152272 C 277.451731 45.911404 277.137608 46.681007 276.509361 47.466316 C 275.886349 48.251625 275.038215 49.1207 273.980666 50.068306 C 272.923116 51.015912 271.682328 52.010637 270.274008 53.057716 C 268.860451 54.099559 267.363129 55.136167 265.792511 56.162304 L 261.070187 59.099359 C 259.462921 60.062672 257.730006 61.010278 255.866206 61.942178 L 248.835073 65.413243 C 237.819806 70.549164 227.427551 73.119742 217.663543 73.119742 C 209.124617 73.119742 202.554199 71.433945 197.962759 68.062352 C 193.852975 65.072943 191.795466 61.219694 191.795466 56.497369 C 191.795466 49.979305 194.732521 43.414122 200.611868 36.796585 C 205.684964 31.110948 212.637566 25.718493 221.469674 20.60875 C 229.181408 16.148195 237.400975 12.48342 246.138846 9.624895 C 254.389825 6.897255 261.085893 5.530818 266.227049 5.530818 C 267.316011 5.530818 268.232204 5.886825 268.970395 6.593603 C 270.321126 7.844862 270.996492 9.080414 270.996492 10.300261 C 270.996492 15.053998 269.017513 18.891541 265.070027 21.81289 C 261.698434 24.289231 257.761418 25.524784 253.264216 25.524784 C 248.772248 25.524784 245.39542 25.07454 243.149436 24.174052 C 234.767572 27.419996 227.956326 31.770608 222.726168 37.231123 C 220.537774 39.508519 218.920037 41.644559 217.857253 43.639244 C 216.799703 45.628693 216.270928 47.204546 216.270928 48.356333 Z M 320.371484 41.3252 C 320.371484 43.058115 321.847864 43.92719 324.800626 43.92719 C 326.983785 43.92719 329.84231 42.864406 333.3762 40.749307 L 337.229449 38.628973 C 338.417883 37.953607 339.454491 37.613306 340.339273 37.613306 C 341.218819 37.613306 341.920361 37.890782 342.43343 38.435263 C 342.946498 38.979744 343.203033 39.73364 343.203033 40.696953 C 343.203033 41.660265 342.883674 42.780639 342.23972 44.047604 C 341.595767 45.314569 340.716221 46.649595 339.590611 48.047445 C 338.465002 49.440059 337.150918 50.822203 335.63789 52.188641 C 334.130096 53.555078 332.507125 54.78016 330.774209 55.874357 C 326.92096 58.282638 323.339951 59.486778 320.031183 59.486778 C 316.53394 59.486778 313.738241 58.889944 311.649319 57.701509 C 311.005365 57.319326 310.382354 56.9162 309.769813 56.497369 C 306.335395 60.418678 301.356536 64.015393 294.838472 67.292749 C 287.901576 70.75858 281.844226 72.491495 276.676893 72.491495 C 271.247791 72.491495 266.960004 70.355454 263.813533 66.088609 C 261.274367 62.617543 260.007402 59.099359 260.007402 55.534057 C 260.007402 50.398136 262.755983 45.497808 268.24791 40.843544 C 272.289634 37.440538 276.200472 34.854254 279.975191 33.084691 C 283.749909 31.320364 287.163385 29.953926 290.210384 28.990614 C 296.665624 26.969752 302.482146 25.959321 307.649478 25.959321 C 309.963522 25.959321 312.026267 26.399094 313.842948 27.283876 C 315.654394 28.163422 316.994655 29.058674 317.86373 29.953926 C 319.92124 31.980023 320.947377 34.566308 320.947377 37.712779 C 320.947377 38.644679 320.85314 39.367163 320.65943 39.880232 C 320.465721 40.3933 320.371484 40.874956 320.371484 41.3252 Z M 280.96468 50.429548 L 280.917562 50.576139 L 280.917562 50.623258 C 280.917562 52.005402 281.221214 52.900654 281.82852 53.319485 C 283.310136 54.219973 284.865048 54.45033 286.503726 54.021028 C 288.142404 53.58649 289.697316 53.047245 291.173697 52.403292 C 294.838472 50.832674 298.14724 48.837989 301.100002 46.429708 C 300.586933 45.403571 300.330399 44.346022 300.330399 43.251825 C 300.330399 40.937781 301.34083 38.628973 303.361692 36.314929 C 300.796349 36.314929 297.325283 37.519069 292.958966 39.92735 C 288.142404 42.592165 284.529983 45.340746 282.121702 48.167859 C 281.346864 49.131171 280.96468 49.885068 280.96468 50.429548 Z M 416.954014 35.398735 C 418.398983 35.398735 419.121467 36.136925 419.121467 37.613306 C 419.121467 39.958762 417.582261 43.267531 414.498615 47.539612 C 412.346868 50.523786 407.91249 54.670217 401.200717 59.968435 C 393.206271 66.229965 386.782444 69.36073 381.93447 69.36073 C 378.269695 69.36073 375.510643 67.821524 373.646843 64.737878 C 372.521234 62.874078 371.610275 60.146438 370.903497 56.549723 L 366.61571 59.633369 C 354.825605 67.790112 346.024909 71.868483 340.213623 71.868483 C 335.365649 71.868483 331.480988 70.09892 328.554403 66.570265 C 325.98906 63.387146 324.701154 59.581015 324.701154 55.151873 C 324.701154 50.267251 326.371244 46.414002 329.711425 43.58689 C 336.522671 37.875076 344.983066 33.168458 355.097846 29.47227 C 359.212864 27.964477 361.814855 27.21058 362.903817 27.21058 C 363.998014 27.21058 364.997974 27.393819 365.914168 27.765532 C 366.830361 28.13201 367.736084 28.60843 368.636572 29.184324 C 370.756906 30.629292 371.814455 32.027142 371.814455 33.377873 C 371.814455 34.466835 371.144325 35.351617 369.793594 36.026982 C 369.374762 36.252104 368.667984 36.555757 367.67326 36.943176 C 366.678535 37.32536 365.458688 37.854134 364.01372 38.5295 C 360.123823 40.361888 356.338634 42.576459 352.642446 45.178449 C 350.009043 47.424433 348.69496 49.214937 348.69496 50.549963 C 348.69496 51.884988 349.62686 52.549883 351.485424 52.549883 C 353.029865 52.549883 356.113512 51.183445 360.736364 48.455805 C 360.736364 48.455805 362.102801 47.618142 364.830441 45.948052 C 367.75179 44.1209 370.097247 42.450809 371.866809 40.937781 C 371.866809 40.937781 372.605 38.5295 374.081381 33.712939 C 376.80902 25.105952 379.845548 17.991053 383.185729 12.373476 C 389.096488 1.033615 395.038659 -4.63108 401.012242 -4.63108 C 403.195401 -4.63108 404.928316 -4.23319 406.210988 -3.42694 C 408.525031 -1.981971 409.682053 -0.385176 409.682053 1.363445 C 409.682053 3.117302 409.357459 4.970631 408.718741 6.928668 C 408.074788 8.886705 407.231889 10.829036 406.190046 12.75566 C 405.142968 14.682285 403.949298 16.593203 402.598567 18.488416 L 394.363293 29.378033 C 392.98115 31.142361 391.761303 32.864805 390.698518 34.534895 C 388.839954 38.545206 387.908054 41.98486 387.908054 44.843384 C 387.908054 48.953168 389.400141 51.005442 392.384315 51.005442 C 394.091053 51.005442 397.153758 49.225408 401.588136 45.660105 L 407.273772 40.843544 C 409.938588 38.466675 412.57199 36.796585 415.173981 35.833273 C 415.912171 35.545326 416.50377 35.398735 416.954014 35.398735 Z M 475.145408 35.592445 C 476.689849 35.592445 477.459452 36.46152 477.459452 38.194435 C 477.459452 39.351457 477.066797 40.801661 476.276253 42.555517 C 475.490944 44.304139 474.360099 45.942817 472.883718 47.466316 C 471.407337 48.995051 469.71107 50.576139 467.800151 52.214817 C 465.889233 53.84826 463.658955 55.570704 461.104084 57.366444 C 458.549212 59.167419 455.73257 60.947453 452.648924 62.711781 C 449.565277 64.481343 446.287921 66.067667 442.822091 67.481224 C 435.147005 70.63293 427.712747 72.203548 420.519317 72.203548 C 415.02739 72.203548 410.226534 70.774286 406.111515 67.915761 C 401.808022 64.931587 399.656276 61.30346 399.656276 57.031379 C 399.656276 50.319605 403.268697 43.942896 410.498775 37.906488 C 416.728892 32.702508 424.063678 28.671255 432.513602 25.81273 C 437.649523 24.079815 442.00537 23.21074 445.565437 23.21074 C 448.46061 23.21074 450.900303 23.917518 452.889752 25.331074 C 455.010086 26.87028 456.067636 28.943495 456.067636 31.545486 C 456.067636 35.623857 452.842633 40.136766 446.387394 45.084212 C 445.361257 45.885227 444.429357 46.560593 443.591694 47.105074 L 441.858779 48.262096 C 438.649483 50.508079 433.764861 53.031539 427.215385 55.827239 C 429.236246 56.884788 431.126223 57.413563 432.874844 57.413563 C 434.623466 57.413563 436.199319 57.204147 437.597169 56.790551 C 438.989784 56.37172 440.576108 55.774885 442.340435 55.005282 C 444.104762 54.235679 445.994739 53.31425 447.999895 52.235759 C 450.010286 51.162503 452.041618 49.979305 454.093892 48.696633 C 458.685332 45.838109 462.669466 42.916759 466.041059 39.92735 C 467.810622 38.288672 470.056606 36.990295 472.784246 36.026982 C 473.684733 35.739036 474.470042 35.592445 475.145408 35.592445 Z M 422.011404 49.131171 L 424.660513 47.78044 C 425.529588 47.330196 426.299191 46.911364 426.974556 46.529181 C 433.461208 42.801581 437.152161 40.508479 438.052648 39.639403 C 438.953136 38.770328 439.40338 38.168258 439.40338 37.833193 C 439.40338 37.492892 439.303907 37.100238 439.110198 36.649994 C 438.921723 36.204986 438.665189 35.80186 438.340595 35.445854 C 437.570992 34.550601 436.754271 34.100358 435.885195 34.100358 C 435.01612 34.100358 434.063279 34.257419 433.0162 34.582014 C 431.974357 34.901373 430.922043 35.341146 429.864493 35.906568 C 428.801709 36.466755 427.786042 37.142121 426.801789 37.92743 C 425.82277 38.717974 424.964166 39.560873 424.225975 40.456125 C 422.524472 42.482222 421.671103 44.230843 421.671103 45.707224 C 421.671103 47.183605 421.786282 48.32492 422.011404 49.131171 Z M 422.011404 49.131171 " stroke="#282929" stroke-width="3.576661" stroke-opacity="1" stroke-miterlimit="4"/><g fill="#2d2d2d" fill-opacity="1"><g transform="translate(14.463172, 197.246536)"><g><path d="M 7.984375 -0.984375 C 6.140625 -1.785156 4.691406 -2.796875 3.640625 -4.015625 C 2.597656 -5.242188 1.910156 -6.394531 1.578125 -7.46875 C 1.054688 -9.082031 0.796875 -10.460938 0.796875 -11.609375 C 0.796875 -12.753906 1.171875 -14.070312 1.921875 -15.5625 C 2.679688 -17.050781 3.929688 -18.523438 5.671875 -19.984375 C 9.503906 -23.171875 15.390625 -25.898438 23.328125 -28.171875 C 20.785156 -29.253906 19.335938 -30.96875 18.984375 -33.3125 C 18.617188 -36 19.765625 -38.382812 22.421875 -40.46875 C 27.335938 -44.320312 36.78125 -46.9375 50.75 -48.3125 C 55.0625 -48.71875 58.191406 -48.921875 60.140625 -48.921875 C 62.097656 -48.921875 63.488281 -48.609375 64.3125 -47.984375 C 65.144531 -47.359375 65.640625 -46.425781 65.796875 -45.1875 C 65.953125 -43.957031 65.71875 -42.921875 65.09375 -42.078125 C 64.46875 -41.242188 63.582031 -40.578125 62.4375 -40.078125 C 60.300781 -39.140625 57.390625 -38.671875 53.703125 -38.671875 C 50.992188 -38.671875 48.523438 -39.078125 46.296875 -39.890625 C 45.691406 -40.128906 45.222656 -40.382812 44.890625 -40.65625 C 40.097656 -39.164062 37.378906 -37.5 36.734375 -35.65625 C 36.535156 -35.175781 36.460938 -34.734375 36.515625 -34.328125 C 36.734375 -32.859375 37.691406 -31.773438 39.390625 -31.078125 C 41.085938 -30.390625 43.675781 -29.953125 47.15625 -29.765625 C 48.300781 -29.660156 49.15625 -29.34375 49.71875 -28.8125 C 50.289062 -28.289062 50.617188 -27.742188 50.703125 -27.171875 C 50.785156 -26.597656 50.738281 -26.148438 50.5625 -25.828125 C 50.394531 -25.503906 50.144531 -25.234375 49.8125 -25.015625 C 49.238281 -24.628906 48.097656 -24.304688 46.390625 -24.046875 C 44.691406 -23.785156 42.71875 -23.421875 40.46875 -22.953125 C 38.21875 -22.484375 36.070312 -21.984375 34.03125 -21.453125 C 32 -20.929688 30.113281 -20.394531 28.375 -19.84375 C 26.632812 -19.289062 25.128906 -18.765625 23.859375 -18.265625 C 21.179688 -17.128906 19.890625 -16.21875 19.984375 -15.53125 C 20.078125 -14.851562 20.351562 -14.265625 20.8125 -13.765625 C 21.269531 -13.265625 21.878906 -12.820312 22.640625 -12.4375 C 24.078125 -11.757812 25.832031 -11.332031 27.90625 -11.15625 C 29.976562 -10.976562 31.988281 -10.890625 33.9375 -10.890625 C 35.894531 -10.890625 37.992188 -11.050781 40.234375 -11.375 C 42.472656 -11.695312 44.566406 -12.109375 46.515625 -12.609375 C 48.472656 -13.117188 50.269531 -13.65625 51.90625 -14.21875 C 53.550781 -14.78125 54.988281 -15.3125 56.21875 -15.8125 L 59.15625 -17.03125 C 59.925781 -17.375 60.625 -17.546875 61.25 -17.546875 C 62.894531 -17.546875 63.828125 -16.671875 64.046875 -14.921875 C 64.335938 -12.546875 61.675781 -9.875 56.0625 -6.90625 C 48.5625 -2.90625 40.273438 -0.289062 31.203125 0.9375 C 29.085938 1.21875 26.550781 1.359375 23.59375 1.359375 C 20.632812 1.359375 17.753906 1.164062 14.953125 0.78125 C 12.148438 0.40625 9.828125 -0.179688 7.984375 -0.984375 Z M 7.984375 -0.984375 "/></g></g></g><g fill="#2d2d2d" fill-opacity="1"><g transform="translate(81.567373, 197.246536)"><g><path d="M 42.484375 -25.375 C 44.015625 -25.375 44.78125 -24.738281 44.78125 -23.46875 C 44.78125 -21.914062 43.847656 -20.0625 41.984375 -17.90625 C 38.890625 -14.3125 35.242188 -10.8125 31.046875 -7.40625 C 24.222656 -1.9375 18.128906 0.796875 12.765625 0.796875 C 8.898438 0.796875 5.734375 -0.878906 3.265625 -4.234375 C 0.703125 -7.734375 -0.578125 -12.429688 -0.578125 -18.328125 C -0.578125 -26.066406 3.195312 -34.625 10.75 -44 C 15.539062 -49.957031 20.054688 -54.003906 24.296875 -56.140625 C 25.617188 -56.804688 26.628906 -57.140625 27.328125 -57.140625 C 28.035156 -57.140625 28.679688 -57.023438 29.265625 -56.796875 C 29.859375 -56.578125 30.40625 -56.265625 30.90625 -55.859375 C 32.082031 -54.867188 32.671875 -53.679688 32.671875 -52.296875 C 32.671875 -50.910156 32.285156 -49.265625 31.515625 -47.359375 C 30.753906 -45.453125 29.640625 -43.421875 28.171875 -41.265625 C 25.085938 -36.679688 20.910156 -32.296875 15.640625 -28.109375 C 14.273438 -25.492188 13.59375 -22.351562 13.59375 -18.6875 C 13.59375 -17.03125 14.117188 -15.472656 15.171875 -14.015625 C 16.242188 -12.554688 17.425781 -11.828125 18.71875 -11.828125 C 20.5 -11.828125 23.890625 -13.660156 28.890625 -17.328125 L 35.296875 -22.25 C 37.910156 -24.332031 40.304688 -25.375 42.484375 -25.375 Z M 42.484375 -25.375 "/></g></g></g><g fill="#2d2d2d" fill-opacity="1"><g transform="translate(118.264422, 197.246536)"><g><path d="M 42.484375 -25.375 C 44.015625 -25.375 44.78125 -24.738281 44.78125 -23.46875 C 44.78125 -21.914062 43.847656 -20.0625 41.984375 -17.90625 C 38.890625 -14.3125 35.242188 -10.8125 31.046875 -7.40625 C 24.222656 -1.9375 18.128906 0.796875 12.765625 0.796875 C 8.898438 0.796875 5.734375 -0.878906 3.265625 -4.234375 C 0.703125 -7.734375 -0.578125 -12.429688 -0.578125 -18.328125 C -0.578125 -26.066406 3.195312 -34.625 10.75 -44 C 15.539062 -49.957031 20.054688 -54.003906 24.296875 -56.140625 C 25.617188 -56.804688 26.628906 -57.140625 27.328125 -57.140625 C 28.035156 -57.140625 28.679688 -57.023438 29.265625 -56.796875 C 29.859375 -56.578125 30.40625 -56.265625 30.90625 -55.859375 C 32.082031 -54.867188 32.671875 -53.679688 32.671875 -52.296875 C 32.671875 -50.910156 32.285156 -49.265625 31.515625 -47.359375 C 30.753906 -45.453125 29.640625 -43.421875 28.171875 -41.265625 C 25.085938 -36.679688 20.910156 -32.296875 15.640625 -28.109375 C 14.273438 -25.492188 13.59375 -22.351562 13.59375 -18.6875 C 13.59375 -17.03125 14.117188 -15.472656 15.171875 -14.015625 C 16.242188 -12.554688 17.425781 -11.828125 18.71875 -11.828125 C 20.5 -11.828125 23.890625 -13.660156 28.890625 -17.328125 L 35.296875 -22.25 C 37.910156 -24.332031 40.304688 -25.375 42.484375 -25.375 Z M 42.484375 -25.375 "/></g></g></g><g fill="#2d2d2d" fill-opacity="1"><g transform="translate(154.961471, 197.246536)"><g><path d="M 19.34375 -16.890625 C 19.34375 -12.890625 23.332031 -10.890625 31.3125 -10.890625 C 36.695312 -10.890625 43.460938 -12.925781 51.609375 -17 L 55.28125 -18.9375 C 60.84375 -21.769531 63.984375 -22.382812 64.703125 -20.78125 C 64.890625 -20.34375 64.984375 -19.84375 64.984375 -19.28125 C 64.984375 -18.71875 64.75 -18.140625 64.28125 -17.546875 C 63.8125 -16.960938 63.179688 -16.316406 62.390625 -15.609375 C 61.597656 -14.910156 60.675781 -14.171875 59.625 -13.390625 C 58.570312 -12.609375 57.457031 -11.832031 56.28125 -11.0625 L 52.765625 -8.875 C 51.566406 -8.15625 50.269531 -7.445312 48.875 -6.75 L 43.640625 -4.171875 C 35.421875 -0.335938 27.664062 1.578125 20.375 1.578125 C 14 1.578125 9.097656 0.320312 5.671875 -2.1875 C 2.609375 -4.414062 1.078125 -7.289062 1.078125 -10.8125 C 1.078125 -15.675781 3.269531 -20.578125 7.65625 -25.515625 C 11.4375 -29.753906 16.625 -33.78125 23.21875 -37.59375 C 28.96875 -40.925781 35.101562 -43.660156 41.625 -45.796875 C 47.78125 -47.828125 52.773438 -48.84375 56.609375 -48.84375 C 57.421875 -48.84375 58.101562 -48.578125 58.65625 -48.046875 C 59.664062 -47.117188 60.171875 -46.195312 60.171875 -45.28125 C 60.171875 -41.738281 58.695312 -38.878906 55.75 -36.703125 C 53.226562 -34.847656 50.289062 -33.921875 46.9375 -33.921875 C 43.582031 -33.921875 41.066406 -34.257812 39.390625 -34.9375 C 33.140625 -32.519531 28.0625 -29.273438 24.15625 -25.203125 C 22.519531 -23.492188 21.304688 -21.894531 20.515625 -20.40625 C 19.734375 -18.925781 19.34375 -17.753906 19.34375 -16.890625 Z M 19.34375 -16.890625 "/></g></g></g><g fill="#2d2d2d" fill-opacity="1"><g transform="translate(213.870836, 197.246536)"><g><path d="M 38.09375 -22.140625 C 38.09375 -20.847656 39.195312 -20.203125 41.40625 -20.203125 C 43.03125 -20.203125 45.160156 -20.992188 47.796875 -22.578125 L 50.671875 -24.15625 C 51.566406 -24.65625 52.34375 -24.90625 53 -24.90625 C 53.65625 -24.90625 54.175781 -24.703125 54.5625 -24.296875 C 54.945312 -23.890625 55.140625 -23.328125 55.140625 -22.609375 C 55.140625 -21.890625 54.898438 -21.054688 54.421875 -20.109375 C 53.941406 -19.160156 53.28125 -18.164062 52.4375 -17.125 C 51.601562 -16.082031 50.617188 -15.050781 49.484375 -14.03125 C 48.359375 -13.019531 47.148438 -12.101562 45.859375 -11.28125 C 42.984375 -9.488281 40.3125 -8.59375 37.84375 -8.59375 C 35.226562 -8.59375 33.144531 -9.035156 31.59375 -9.921875 C 31.113281 -10.203125 30.644531 -10.5 30.1875 -10.8125 C 27.625 -7.894531 23.910156 -5.210938 19.046875 -2.765625 C 13.867188 -0.179688 9.351562 1.109375 5.5 1.109375 C 1.445312 1.109375 -1.75 -0.484375 -4.09375 -3.671875 C -5.988281 -6.253906 -6.9375 -8.875 -6.9375 -11.53125 C -6.9375 -15.363281 -4.890625 -19.019531 -0.796875 -22.5 C 2.222656 -25.039062 5.140625 -26.96875 7.953125 -28.28125 C 10.773438 -29.601562 13.320312 -30.625 15.59375 -31.34375 C 20.414062 -32.851562 24.753906 -33.609375 28.609375 -33.609375 C 30.335938 -33.609375 31.878906 -33.273438 33.234375 -32.609375 C 34.585938 -31.953125 35.585938 -31.289062 36.234375 -30.625 C 37.765625 -29.113281 38.53125 -27.1875 38.53125 -24.84375 C 38.53125 -24.144531 38.457031 -23.601562 38.3125 -23.21875 C 38.164062 -22.832031 38.09375 -22.472656 38.09375 -22.140625 Z M 8.703125 -15.34375 L 8.65625 -15.234375 L 8.65625 -15.203125 C 8.65625 -14.171875 8.882812 -13.5 9.34375 -13.1875 C 10.445312 -12.519531 11.609375 -12.347656 12.828125 -12.671875 C 14.054688 -12.992188 15.21875 -13.394531 16.3125 -13.875 C 19.050781 -15.050781 21.519531 -16.535156 23.71875 -18.328125 C 23.332031 -19.097656 23.140625 -19.890625 23.140625 -20.703125 C 23.140625 -22.429688 23.894531 -24.15625 25.40625 -25.875 C 23.488281 -25.875 20.898438 -24.976562 17.640625 -23.1875 C 14.046875 -21.195312 11.351562 -19.144531 9.5625 -17.03125 C 8.988281 -16.3125 8.703125 -15.75 8.703125 -15.34375 Z M 8.703125 -15.34375 "/></g></g></g><g fill="#2d2d2d" fill-opacity="1"><g transform="translate(262.752312, 197.246536)"><g><path d="M 61.28125 -26.5625 C 62.363281 -26.5625 62.90625 -26.007812 62.90625 -24.90625 C 62.90625 -23.15625 61.753906 -20.6875 59.453125 -17.5 C 57.847656 -15.269531 54.539062 -12.179688 49.53125 -8.234375 C 43.5625 -3.554688 38.769531 -1.21875 35.15625 -1.21875 C 32.414062 -1.21875 30.351562 -2.367188 28.96875 -4.671875 C 28.132812 -6.054688 27.453125 -8.09375 26.921875 -10.78125 L 23.71875 -8.484375 C 14.925781 -2.398438 8.363281 0.640625 4.03125 0.640625 C 0.40625 0.640625 -2.492188 -0.675781 -4.671875 -3.3125 C -6.585938 -5.675781 -7.546875 -8.515625 -7.546875 -11.828125 C -7.546875 -15.460938 -6.300781 -18.335938 -3.8125 -20.453125 C 1.269531 -24.710938 7.582031 -28.222656 15.125 -30.984375 C 18.195312 -32.109375 20.140625 -32.671875 20.953125 -32.671875 C 21.765625 -32.671875 22.507812 -32.53125 23.1875 -32.25 C 23.875 -31.976562 24.554688 -31.628906 25.234375 -31.203125 C 26.816406 -30.117188 27.609375 -29.078125 27.609375 -28.078125 C 27.609375 -27.253906 27.101562 -26.59375 26.09375 -26.09375 C 25.78125 -25.925781 25.25 -25.695312 24.5 -25.40625 C 23.757812 -25.125 22.851562 -24.726562 21.78125 -24.21875 C 18.882812 -22.851562 16.054688 -21.203125 13.296875 -19.265625 C 11.328125 -17.585938 10.34375 -16.25 10.34375 -15.25 C 10.34375 -14.257812 11.039062 -13.765625 12.4375 -13.765625 C 13.582031 -13.765625 15.882812 -14.785156 19.34375 -16.828125 C 19.34375 -16.828125 20.359375 -17.445312 22.390625 -18.6875 C 24.566406 -20.050781 26.316406 -21.296875 27.640625 -22.421875 C 27.640625 -22.421875 28.191406 -24.21875 29.296875 -27.8125 C 31.328125 -34.238281 33.585938 -39.546875 36.078125 -43.734375 C 40.492188 -52.191406 44.929688 -56.421875 49.390625 -56.421875 C 51.015625 -56.421875 52.304688 -56.125 53.265625 -55.53125 C 54.992188 -54.445312 55.859375 -53.253906 55.859375 -51.953125 C 55.859375 -50.648438 55.617188 -49.265625 55.140625 -47.796875 C 54.660156 -46.335938 54.03125 -44.890625 53.25 -43.453125 C 52.46875 -42.015625 51.578125 -40.585938 50.578125 -39.171875 L 44.421875 -31.046875 C 43.390625 -29.734375 42.476562 -28.453125 41.6875 -27.203125 C 40.300781 -24.210938 39.609375 -21.648438 39.609375 -19.515625 C 39.609375 -16.453125 40.722656 -14.921875 42.953125 -14.921875 C 44.222656 -14.921875 46.507812 -16.25 49.8125 -18.90625 L 54.0625 -22.5 C 56.050781 -24.269531 58.015625 -25.515625 59.953125 -26.234375 C 60.503906 -26.453125 60.945312 -26.5625 61.28125 -26.5625 Z M 61.28125 -26.5625 "/></g></g></g><g fill="#2d2d2d" fill-opacity="1"><g transform="translate(317.743971, 197.246536)"><g><path d="M 49.703125 -26.421875 C 50.859375 -26.421875 51.4375 -25.769531 51.4375 -24.46875 C 51.4375 -23.613281 51.140625 -22.53125 50.546875 -21.21875 C 49.960938 -19.914062 49.117188 -18.691406 48.015625 -17.546875 C 46.910156 -16.410156 45.644531 -15.234375 44.21875 -14.015625 C 42.800781 -12.796875 41.140625 -11.515625 39.234375 -10.171875 C 37.328125 -8.828125 35.222656 -7.492188 32.921875 -6.171875 C 30.617188 -4.859375 28.175781 -3.675781 25.59375 -2.625 C 19.863281 -0.269531 14.316406 0.90625 8.953125 0.90625 C 4.847656 0.90625 1.265625 -0.160156 -1.796875 -2.296875 C -5.003906 -4.523438 -6.609375 -7.234375 -6.609375 -10.421875 C -6.609375 -15.429688 -3.914062 -20.1875 1.46875 -24.6875 C 6.125 -28.570312 11.601562 -31.582031 17.90625 -33.71875 C 21.738281 -35.007812 24.984375 -35.65625 27.640625 -35.65625 C 29.796875 -35.65625 31.617188 -35.128906 33.109375 -34.078125 C 34.679688 -32.921875 35.46875 -31.375 35.46875 -29.4375 C 35.46875 -26.394531 33.0625 -23.03125 28.25 -19.34375 C 27.476562 -18.738281 26.785156 -18.234375 26.171875 -17.828125 L 24.875 -16.96875 C 22.476562 -15.289062 18.835938 -13.410156 13.953125 -11.328125 C 15.453125 -10.535156 16.851562 -10.140625 18.15625 -10.140625 C 19.46875 -10.140625 20.644531 -10.289062 21.6875 -10.59375 C 22.726562 -10.90625 23.90625 -11.347656 25.21875 -11.921875 C 26.539062 -12.503906 27.953125 -13.195312 29.453125 -14 C 30.953125 -14.800781 32.46875 -15.679688 34 -16.640625 C 37.425781 -18.773438 40.398438 -20.957031 42.921875 -23.1875 C 44.234375 -24.40625 45.910156 -25.375 47.953125 -26.09375 C 48.617188 -26.3125 49.203125 -26.421875 49.703125 -26.421875 Z M 10.0625 -16.3125 L 12.046875 -17.328125 C 12.691406 -17.660156 13.265625 -17.972656 13.765625 -18.265625 C 18.609375 -21.035156 21.363281 -22.742188 22.03125 -23.390625 C 22.695312 -24.046875 23.03125 -24.5 23.03125 -24.75 C 23.03125 -25 22.957031 -25.289062 22.8125 -25.625 C 22.675781 -25.957031 22.488281 -26.257812 22.25 -26.53125 C 21.675781 -27.195312 21.0625 -27.53125 20.40625 -27.53125 C 19.757812 -27.53125 19.046875 -27.410156 18.265625 -27.171875 C 17.492188 -26.929688 16.710938 -26.601562 15.921875 -26.1875 C 15.128906 -25.769531 14.367188 -25.265625 13.640625 -24.671875 C 12.910156 -24.085938 12.269531 -23.457031 11.71875 -22.78125 C 10.445312 -21.269531 9.8125 -19.960938 9.8125 -18.859375 C 9.8125 -17.765625 9.894531 -16.914062 10.0625 -16.3125 Z M 10.0625 -16.3125 "/></g></g></g></svg>